{
    "patcher": {
        "fileversion": 1,
        "appversion": {
            "major": 9,
            "minor": 1,
            "revision": 4,
            "architecture": "x64",
            "modernui": 1
        },
        "classnamespace": "box",
        "rect": [ 415.0, 269.0, 640.0, 480.0 ],
        "description": "461 x 195, containing 13 objects",
        "tags": "audio, m4l",
        "subpatcher_template": "0SEB-MSPDEFAULT",
        "boxes": [
            {
                "box": {
                    "id": "obj-22",
                    "maxclass": "newobj",
                    "numinlets": 2,
                    "numoutlets": 2,
                    "outlettype": [ "int", "int" ],
                    "patching_rect": [ 116.0, 173.0, 55.0, 22.0 ],
                    "text": "stripnote"
                }
            },
            {
                "box": {
                    "id": "obj-20",
                    "maxclass": "newobj",
                    "numinlets": 1,
                    "numoutlets": 3,
                    "outlettype": [ "int", "int", "int" ],
                    "patching_rect": [ 171.0, 7.0, 41.0, 22.0 ],
                    "text": "notein"
                }
            },
            {
                "box": {
                    "id": "obj-14",
                    "maxclass": "newobj",
                    "numinlets": 2,
                    "numoutlets": 1,
                    "outlettype": [ "" ],
                    "patching_rect": [ 415.0, 199.0, 60.0, 22.0 ],
                    "text": "pack 0 0"
                }
            },
            {
                "box": {
                    "id": "obj-15",
                    "maxclass": "newobj",
                    "numinlets": 3,
                    "numoutlets": 2,
                    "outlettype": [ "float", "float" ],
                    "patching_rect": [ 415.0, 161.0, 109.0, 22.0 ],
                    "text": "makenote 127 50"
                }
            },
            {
                "box": {
                    "id": "obj-16",
                    "maxclass": "kslider",
                    "numinlets": 2,
                    "numoutlets": 2,
                    "outlettype": [ "int", "int" ],
                    "parameter_enable": 0,
                    "patching_rect": [ 415.0, 102.0, 180.0, 53.0 ],
                    "range": 25
                }
            },
            {
                "box": {
                    "id": "obj-19",
                    "maxclass": "newobj",
                    "numinlets": 7,
                    "numoutlets": 2,
                    "outlettype": [ "int", "" ],
                    "patching_rect": [ 415.0, 224.0, 82.0, 22.0 ],
                    "text": "midiformat"
                }
            },
            {
                "box": {
                    "id": "obj-10",
                    "maxclass": "ezdac~",
                    "numinlets": 2,
                    "numoutlets": 0,
                    "patching_rect": [ 311.0, 375.0, 45.0, 45.0 ]
                }
            },
            {
                "box": {
                    "autosave": 1,
                    "id": "obj-4",
                    "inletInfo": {
                        "IOInfo": [
                            {
                                "type": "midi",
                                "index": -1,
                                "tag": "",
                                "comment": ""
                            }
                        ]
                    },
                    "maxclass": "newobj",
                    "numinlets": 2,
                    "numoutlets": 2,
                    "outletInfo": {
                        "IOInfo": [
                            {
                                "type": "signal",
                                "index": 1,
                                "tag": "out1",
                                "comment": ""
                            }
                        ]
                    },
                    "outlettype": [ "signal", "list" ],
                    "patching_rect": [ 286.0, 292.0, 425.0, 22.0 ],
                    "rnboattrcache": {                    },
                    "rnboversion": "1.4.4",
                    "saved_attribute_attributes": {
                        "valueof": {
                            "parameter_invisible": 1,
                            "parameter_longname": "rnbo~",
                            "parameter_modmode": 0,
                            "parameter_shortname": "rnbo~",
                            "parameter_type": 3
                        }
                    },
                    "saved_object_attributes": {
                        "optimization": "O1",
                        "parameter_enable": 1,
                        "uuid": "2bbbfc6f-6f91-11f1-bc6f-561867b4b747"
                    },
                    "snapshot": {
                        "filetype": "C74Snapshot",
                        "version": 2,
                        "minorversion": 0,
                        "name": "snapshotlist",
                        "origin": "rnbo~",
                        "type": "list",
                        "subtype": "Undefined",
                        "embed": 1,
                        "snapshot": {
                            "__presetid": "/Users/macdeseb/Desktop/RNBOSynthJuce/patch/SimpleSynth.rnbopat"
                        },
                        "snapshotlist": {
                            "current_snapshot": 0,
                            "entries": [
                                {
                                    "filetype": "C74Snapshot",
                                    "version": 2,
                                    "minorversion": 0,
                                    "name": "/Users/macdeseb/Desktop/RNBOSynthJuce/patch/SimpleSynth.rnbopat",
                                    "origin": "/Users/macdeseb/Desktop/RNBOSynthJuce/patch/SimpleSynth.rnbopat",
                                    "type": "rnbo",
                                    "subtype": "",
                                    "embed": 1,
                                    "snapshot": {
                                        "__presetid": "/Users/macdeseb/Desktop/RNBOSynthJuce/patch/SimpleSynth.rnbopat"
                                    },
                                    "fileref": {
                                        "name": "/Users/macdeseb/Desktop/RNBOSynthJuce/patch/SimpleSynth.rnbopat",
                                        "filename": ".maxsnap",
                                        "filepath": "~/Documents/Max 9/Snapshots",
                                        "filepos": -1,
                                        "snapshotfileid": "575088fb37130b1684aa6f6af8ef40e6"
                                    }
                                }
                            ]
                        }
                    },
                    "text": "rnbo~ /Users/macdeseb/Desktop/RNBOSynthJuce/patch/SimpleSynth.rnbopat",
                    "varname": "rnbo~"
                }
            },
            {
                "box": {
                    "id": "obj-18",
                    "maxclass": "newobj",
                    "numinlets": 1,
                    "numoutlets": 1,
                    "outlettype": [ "" ],
                    "patcher": {
                        "fileversion": 1,
                        "appversion": {
                            "major": 9,
                            "minor": 1,
                            "revision": 4,
                            "architecture": "x64",
                            "modernui": 1
                        },
                        "classnamespace": "box",
                        "rect": [ 34.0, 62.0, 778.0, 704.0 ],
                        "subpatcher_template": "SEB-DEFAUT",
                        "boxes": [
                            {
                                "box": {
                                    "id": "obj-10",
                                    "maxclass": "newobj",
                                    "numinlets": 1,
                                    "numoutlets": 1,
                                    "outlettype": [ "" ],
                                    "patching_rect": [ 607.0, 466.0, 100.0, 22.0 ]
                                }
                            },
                            {
                                "box": {
                                    "id": "obj-8",
                                    "maxclass": "toggle",
                                    "numinlets": 1,
                                    "numoutlets": 1,
                                    "outlettype": [ "int" ],
                                    "parameter_enable": 0,
                                    "patching_rect": [ 425.0, 182.0, 24.0, 24.0 ]
                                }
                            },
                            {
                                "box": {
                                    "bgcolor": [ 0.776470588235294, 0.733333333333333, 0.733333333333333, 0.0 ],
                                    "blinkcolor": [ 0.36078431372549, 0.011764705882353, 0.011764705882353, 0.96 ],
                                    "id": "obj-6",
                                    "maxclass": "button",
                                    "numinlets": 1,
                                    "numoutlets": 1,
                                    "outlettype": [ "bang" ],
                                    "parameter_enable": 0,
                                    "patching_rect": [ 390.0, 326.0, 24.0, 24.0 ]
                                }
                            },
                            {
                                "box": {
                                    "id": "obj-4",
                                    "maxclass": "live.button",
                                    "numinlets": 1,
                                    "numoutlets": 1,
                                    "outlettype": [ "" ],
                                    "parameter_enable": 1,
                                    "patching_rect": [ 471.0, 312.0, 15.0, 15.0 ],
                                    "saved_attribute_attributes": {
                                        "valueof": {
                                            "parameter_enum": [ "off", "on" ],
                                            "parameter_longname": "live.button",
                                            "parameter_mmax": 1,
                                            "parameter_modmode": 0,
                                            "parameter_shortname": "live.button",
                                            "parameter_type": 2
                                        }
                                    },
                                    "transition": 1,
                                    "varname": "live.button"
                                }
                            },
                            {
                                "box": {
                                    "id": "obj-15",
                                    "maxclass": "message",
                                    "numinlets": 2,
                                    "numoutlets": 1,
                                    "outlettype": [ "" ],
                                    "patching_rect": [ 145.0, 132.0, 31.0, 22.0 ],
                                    "text": "stop"
                                }
                            },
                            {
                                "box": {
                                    "id": "obj-11",
                                    "maxclass": "message",
                                    "numinlets": 2,
                                    "numoutlets": 1,
                                    "outlettype": [ "" ],
                                    "patching_rect": [ 50.0, 132.0, 72.0, 22.0 ],
                                    "text": "startwindow"
                                }
                            },
                            {
                                "box": {
                                    "id": "obj-9",
                                    "maxclass": "newobj",
                                    "numinlets": 2,
                                    "numoutlets": 2,
                                    "outlettype": [ "bang", "" ],
                                    "patching_rect": [ 50.0, 100.0, 114.0, 22.0 ],
                                    "text": "sel 1"
                                }
                            },
                            {
                                "box": {
                                    "comment": "",
                                    "id": "obj-16",
                                    "index": 1,
                                    "maxclass": "inlet",
                                    "numinlets": 0,
                                    "numoutlets": 1,
                                    "outlettype": [ "int" ],
                                    "patching_rect": [ 50.0, 40.0, 30.0, 30.0 ]
                                }
                            },
                            {
                                "box": {
                                    "comment": "",
                                    "id": "obj-17",
                                    "index": 1,
                                    "maxclass": "outlet",
                                    "numinlets": 1,
                                    "numoutlets": 0,
                                    "patching_rect": [ 91.5, 214.0, 30.0, 30.0 ]
                                }
                            }
                        ],
                        "lines": [
                            {
                                "patchline": {
                                    "destination": [ "obj-17", 0 ],
                                    "source": [ "obj-11", 0 ]
                                }
                            },
                            {
                                "patchline": {
                                    "destination": [ "obj-17", 0 ],
                                    "source": [ "obj-15", 0 ]
                                }
                            },
                            {
                                "patchline": {
                                    "destination": [ "obj-9", 0 ],
                                    "source": [ "obj-16", 0 ]
                                }
                            },
                            {
                                "patchline": {
                                    "destination": [ "obj-4", 0 ],
                                    "order": 0,
                                    "source": [ "obj-8", 0 ]
                                }
                            },
                            {
                                "patchline": {
                                    "destination": [ "obj-6", 0 ],
                                    "order": 1,
                                    "source": [ "obj-8", 0 ]
                                }
                            },
                            {
                                "patchline": {
                                    "destination": [ "obj-11", 0 ],
                                    "source": [ "obj-9", 0 ]
                                }
                            },
                            {
                                "patchline": {
                                    "destination": [ "obj-15", 0 ],
                                    "source": [ "obj-9", 1 ]
                                }
                            }
                        ]
                    },
                    "patching_rect": [ 1104.0, 776.0, 93.0, 22.0 ],
                    "text": "p START/STOP"
                }
            },
            {
                "box": {
                    "id": "obj-13",
                    "maxclass": "toggle",
                    "numinlets": 1,
                    "numoutlets": 1,
                    "outlettype": [ "int" ],
                    "parameter_enable": 0,
                    "patching_rect": [ 1104.0, 744.0, 24.0, 24.0 ]
                }
            },
            {
                "box": {
                    "id": "obj-8",
                    "maxclass": "newobj",
                    "numinlets": 6,
                    "numoutlets": 0,
                    "patching_rect": [ 1104.0, 808.0, 112.0, 22.0 ],
                    "text": "dac~ 1 2 3 4 5 6"
                }
            },
            {
                "box": {
                    "id": "obj-17",
                    "maxclass": "button",
                    "numinlets": 1,
                    "numoutlets": 1,
                    "outlettype": [ "bang" ],
                    "parameter_enable": 0,
                    "patching_rect": [ 1035.0, 744.0, 24.0, 24.0 ],
                    "presentation": 1,
                    "presentation_rect": [ 390.0, 2.0, 24.0, 24.0 ]
                }
            },
            {
                "box": {
                    "id": "obj-136",
                    "maxclass": "newobj",
                    "numinlets": 1,
                    "numoutlets": 1,
                    "outlettype": [ "" ],
                    "patching_rect": [ 987.0, 808.0, 51.0, 22.0 ],
                    "text": "pcontrol"
                }
            },
            {
                "box": {
                    "id": "obj-135",
                    "maxclass": "message",
                    "numinlets": 2,
                    "numoutlets": 1,
                    "outlettype": [ "" ],
                    "patching_rect": [ 987.0, 784.0, 109.0, 22.0 ],
                    "text": "load \"Audio status\""
                }
            },
            {
                "box": {
                    "id": "obj-5",
                    "maxclass": "newobj",
                    "numinlets": 2,
                    "numoutlets": 2,
                    "outlettype": [ "signal", "signal" ],
                    "patching_rect": [ 904.0, 712.0, 122.0, 22.0 ],
                    "text": "limi~ 2 @threshold -6"
                }
            },
            {
                "box": {
                    "id": "obj-3",
                    "maxclass": "newobj",
                    "numinlets": 1,
                    "numoutlets": 1,
                    "outlettype": [ "bang" ],
                    "patching_rect": [ 742.0, 832.0, 58.0, 22.0 ],
                    "text": "loadbang"
                }
            },
            {
                "box": {
                    "id": "obj-21",
                    "maxclass": "newobj",
                    "numinlets": 2,
                    "numoutlets": 3,
                    "outlettype": [ "", "", "bang" ],
                    "patcher": {
                        "fileversion": 1,
                        "appversion": {
                            "major": 9,
                            "minor": 1,
                            "revision": 4,
                            "architecture": "x64",
                            "modernui": 1
                        },
                        "classnamespace": "box",
                        "rect": [ 0.0, 0.0, 640.0, 480.0 ],
                        "subpatcher_template": "SEB-DEFAUT",
                        "boxes": [
                            {
                                "box": {
                                    "id": "obj-15",
                                    "maxclass": "newobj",
                                    "numinlets": 1,
                                    "numoutlets": 1,
                                    "outlettype": [ "bang" ],
                                    "patching_rect": [ 76.0, 100.0, 58.0, 22.0 ],
                                    "text": "loadbang"
                                }
                            },
                            {
                                "box": {
                                    "fontname": "Arial",
                                    "fontsize": 12.0,
                                    "id": "obj-74",
                                    "maxclass": "newobj",
                                    "numinlets": 2,
                                    "numoutlets": 2,
                                    "outlettype": [ "", "int" ],
                                    "patching_rect": [ 50.0, 179.0, 108.0, 22.0 ],
                                    "text": "adstatus option 1"
                                }
                            },
                            {
                                "box": {
                                    "fontname": "Arial",
                                    "fontsize": 13.0,
                                    "id": "obj-38",
                                    "maxclass": "newobj",
                                    "numinlets": 2,
                                    "numoutlets": 2,
                                    "outlettype": [ "", "int" ],
                                    "patching_rect": [ 50.0, 126.0, 110.0, 23.0 ],
                                    "text": "adstatus option 0"
                                }
                            },
                            {
                                "box": {
                                    "comment": "",
                                    "id": "obj-16",
                                    "index": 1,
                                    "maxclass": "inlet",
                                    "numinlets": 0,
                                    "numoutlets": 1,
                                    "outlettype": [ "bang" ],
                                    "patching_rect": [ 50.0, 40.0, 30.0, 30.0 ]
                                }
                            },
                            {
                                "box": {
                                    "comment": "",
                                    "id": "obj-17",
                                    "index": 2,
                                    "maxclass": "inlet",
                                    "numinlets": 0,
                                    "numoutlets": 1,
                                    "outlettype": [ "int" ],
                                    "patching_rect": [ 85.0, 40.0, 30.0, 30.0 ]
                                }
                            },
                            {
                                "box": {
                                    "comment": "",
                                    "id": "obj-18",
                                    "index": 1,
                                    "maxclass": "outlet",
                                    "numinlets": 1,
                                    "numoutlets": 0,
                                    "patching_rect": [ 50.0, 261.0, 30.0, 30.0 ]
                                }
                            },
                            {
                                "box": {
                                    "comment": "",
                                    "id": "obj-19",
                                    "index": 2,
                                    "maxclass": "outlet",
                                    "numinlets": 1,
                                    "numoutlets": 0,
                                    "patching_rect": [ 85.0, 261.0, 30.0, 30.0 ]
                                }
                            },
                            {
                                "box": {
                                    "comment": "",
                                    "id": "obj-20",
                                    "index": 3,
                                    "maxclass": "outlet",
                                    "numinlets": 1,
                                    "numoutlets": 0,
                                    "patching_rect": [ 120.0, 261.0, 30.0, 30.0 ]
                                }
                            }
                        ],
                        "lines": [
                            {
                                "patchline": {
                                    "destination": [ "obj-20", 0 ],
                                    "source": [ "obj-15", 0 ]
                                }
                            },
                            {
                                "patchline": {
                                    "destination": [ "obj-38", 0 ],
                                    "source": [ "obj-16", 0 ]
                                }
                            },
                            {
                                "patchline": {
                                    "destination": [ "obj-74", 0 ],
                                    "source": [ "obj-17", 0 ]
                                }
                            },
                            {
                                "patchline": {
                                    "destination": [ "obj-18", 0 ],
                                    "source": [ "obj-38", 0 ]
                                }
                            },
                            {
                                "patchline": {
                                    "destination": [ "obj-19", 0 ],
                                    "source": [ "obj-74", 0 ]
                                }
                            }
                        ]
                    },
                    "patching_rect": [ 764.0, 857.0, 110.0, 22.0 ],
                    "text": "p"
                }
            },
            {
                "box": {
                    "allowdrag": 0,
                    "id": "obj-78",
                    "items": [ "None", ",", "System Device: Écouteurs externes", ",", "BlackHole 2ch", ",", "Écouteurs externes", ",", "Haut-parleurs MacBook Air", ",", "Microsoft Teams Audio", ",", "SEB-JBL1&2&MCBOOK" ],
                    "maxclass": "umenu",
                    "numinlets": 1,
                    "numoutlets": 3,
                    "outlettype": [ "int", "", "" ],
                    "parameter_enable": 0,
                    "patching_rect": [ 1035.0, 857.0, 156.66754200000003, 22.0 ],
                    "presentation": 1,
                    "presentation_rect": [ 207.0, 3.0, 164.999969, 22.0 ]
                }
            },
            {
                "box": {
                    "id": "obj-36",
                    "items": [ "None", ",", "System Device: Micro MacBook Air", ",", "Micro de « TELDESEB »", ",", "BlackHole 2ch", ",", "Micro MacBook Air", ",", "Microsoft Teams Audio" ],
                    "maxclass": "umenu",
                    "numinlets": 1,
                    "numoutlets": 3,
                    "outlettype": [ "int", "", "" ],
                    "parameter_enable": 0,
                    "patching_rect": [ 876.0, 857.0, 156.667542, 22.0 ],
                    "presentation": 1,
                    "presentation_rect": [ 29.0, 3.0, 156.667542, 22.0 ]
                }
            },
            {
                "box": {
                    "id": "obj-37",
                    "maxclass": "button",
                    "numinlets": 1,
                    "numoutlets": 1,
                    "outlettype": [ "bang" ],
                    "parameter_enable": 0,
                    "patching_rect": [ 742.0, 858.0, 20.0, 20.0 ],
                    "presentation": 1,
                    "presentation_rect": [ 4.0, 4.0, 20.0, 20.0 ]
                }
            },
            {
                "box": {
                    "annotation": "",
                    "clip_size": 1,
                    "display_range": [ -70.0, 30.0 ],
                    "fontsize": 10.55553416410818,
                    "id": "obj-7",
                    "lastchannelcount": 0,
                    "maxclass": "live.gain~",
                    "numinlets": 2,
                    "numoutlets": 5,
                    "orientation": 1,
                    "outlettype": [ "signal", "signal", "", "float", "list" ],
                    "parameter_enable": 1,
                    "patching_rect": [ 904.0, 638.0, 147.0, 49.0 ],
                    "presentation": 1,
                    "presentation_rect": [ 207.0, 35.0, 103.0, 49.0 ],
                    "prototypename": "M4L.live.gain~.H.extended",
                    "saved_attribute_attributes": {
                        "valueof": {
                            "parameter_initial": [ -12 ],
                            "parameter_initial_enable": 1,
                            "parameter_linknames": 1,
                            "parameter_longname": "SORTIE",
                            "parameter_mmax": 30.0,
                            "parameter_mmin": -70.0,
                            "parameter_modmode": 0,
                            "parameter_shortname": "SORTIE",
                            "parameter_type": 0,
                            "parameter_unitstyle": 4
                        }
                    },
                    "varname": "SORTIE"
                }
            },
            {
                "box": {
                    "annotation": "",
                    "clip_size": 1,
                    "display_range": [ -70.0, 30.0 ],
                    "fontsize": 10.55553416410818,
                    "id": "obj-6",
                    "lastchannelcount": 0,
                    "maxclass": "live.gain~",
                    "numinlets": 2,
                    "numoutlets": 5,
                    "orientation": 1,
                    "outlettype": [ "signal", "signal", "", "float", "list" ],
                    "parameter_enable": 1,
                    "patching_rect": [ 742.0, 753.0, 147.0, 49.0 ],
                    "presentation": 1,
                    "presentation_rect": [ 29.0, 34.0, 103.0, 49.0 ],
                    "prototypename": "M4L.live.gain~.H.extended",
                    "saved_attribute_attributes": {
                        "valueof": {
                            "parameter_initial": [ 0.0 ],
                            "parameter_initial_enable": 1,
                            "parameter_linknames": 1,
                            "parameter_longname": "ENTREE",
                            "parameter_mmax": 30.0,
                            "parameter_mmin": -70.0,
                            "parameter_modmode": 0,
                            "parameter_shortname": "ENTREE",
                            "parameter_type": 0,
                            "parameter_unitstyle": 4
                        }
                    },
                    "varname": "ENTREE"
                }
            },
            {
                "box": {
                    "id": "obj-2",
                    "local": 1,
                    "maxclass": "ezadc~",
                    "numinlets": 1,
                    "numoutlets": 2,
                    "outlettype": [ "signal", "signal" ],
                    "patching_rect": [ 742.0, 681.0, 45.0, 45.0 ],
                    "presentation": 1,
                    "presentation_rect": [ 141.0, 35.0, 45.0, 45.0 ]
                }
            },
            {
                "box": {
                    "id": "obj-1",
                    "local": 1,
                    "maxclass": "ezdac~",
                    "numinlets": 2,
                    "numoutlets": 0,
                    "patching_rect": [ 904.0, 770.0, 51.0, 51.0 ],
                    "presentation": 1,
                    "presentation_rect": [ 327.0, 36.0, 45.0, 45.0 ]
                }
            }
        ],
        "lines": [
            {
                "patchline": {
                    "destination": [ "obj-18", 0 ],
                    "source": [ "obj-13", 0 ]
                }
            },
            {
                "patchline": {
                    "destination": [ "obj-136", 0 ],
                    "source": [ "obj-135", 0 ]
                }
            },
            {
                "patchline": {
                    "destination": [ "obj-19", 0 ],
                    "source": [ "obj-14", 0 ]
                }
            },
            {
                "patchline": {
                    "destination": [ "obj-14", 1 ],
                    "source": [ "obj-15", 1 ]
                }
            },
            {
                "patchline": {
                    "destination": [ "obj-14", 0 ],
                    "source": [ "obj-15", 0 ]
                }
            },
            {
                "patchline": {
                    "destination": [ "obj-15", 0 ],
                    "source": [ "obj-16", 0 ]
                }
            },
            {
                "patchline": {
                    "destination": [ "obj-135", 0 ],
                    "source": [ "obj-17", 0 ]
                }
            },
            {
                "patchline": {
                    "destination": [ "obj-8", 0 ],
                    "source": [ "obj-18", 0 ]
                }
            },
            {
                "patchline": {
                    "destination": [ "obj-4", 1 ],
                    "source": [ "obj-19", 0 ]
                }
            },
            {
                "patchline": {
                    "destination": [ "obj-6", 1 ],
                    "source": [ "obj-2", 1 ]
                }
            },
            {
                "patchline": {
                    "destination": [ "obj-6", 0 ],
                    "source": [ "obj-2", 0 ]
                }
            },
            {
                "patchline": {
                    "destination": [ "obj-22", 1 ],
                    "source": [ "obj-20", 1 ]
                }
            },
            {
                "patchline": {
                    "destination": [ "obj-22", 0 ],
                    "source": [ "obj-20", 0 ]
                }
            },
            {
                "patchline": {
                    "destination": [ "obj-36", 0 ],
                    "source": [ "obj-21", 0 ]
                }
            },
            {
                "patchline": {
                    "destination": [ "obj-37", 0 ],
                    "source": [ "obj-21", 2 ]
                }
            },
            {
                "patchline": {
                    "destination": [ "obj-78", 0 ],
                    "midpoints": [ 819.0, 887.5, 1201.0, 887.5, 1201.0, 848.5, 1044.5, 848.5 ],
                    "source": [ "obj-21", 1 ]
                }
            },
            {
                "patchline": {
                    "destination": [ "obj-14", 1 ],
                    "source": [ "obj-22", 1 ]
                }
            },
            {
                "patchline": {
                    "destination": [ "obj-14", 0 ],
                    "source": [ "obj-22", 0 ]
                }
            },
            {
                "patchline": {
                    "destination": [ "obj-37", 0 ],
                    "source": [ "obj-3", 0 ]
                }
            },
            {
                "patchline": {
                    "destination": [ "obj-21", 0 ],
                    "source": [ "obj-36", 0 ]
                }
            },
            {
                "patchline": {
                    "destination": [ "obj-21", 1 ],
                    "order": 0,
                    "source": [ "obj-37", 0 ]
                }
            },
            {
                "patchline": {
                    "destination": [ "obj-21", 0 ],
                    "order": 1,
                    "source": [ "obj-37", 0 ]
                }
            },
            {
                "patchline": {
                    "destination": [ "obj-10", 1 ],
                    "order": 0,
                    "source": [ "obj-4", 0 ]
                }
            },
            {
                "patchline": {
                    "destination": [ "obj-10", 0 ],
                    "order": 1,
                    "source": [ "obj-4", 0 ]
                }
            },
            {
                "patchline": {
                    "destination": [ "obj-1", 1 ],
                    "midpoints": [ 1016.5, 749.5, 945.5, 749.5 ],
                    "source": [ "obj-5", 1 ]
                }
            },
            {
                "patchline": {
                    "destination": [ "obj-1", 0 ],
                    "source": [ "obj-5", 0 ]
                }
            },
            {
                "patchline": {
                    "destination": [ "obj-5", 1 ],
                    "source": [ "obj-7", 1 ]
                }
            },
            {
                "patchline": {
                    "destination": [ "obj-5", 0 ],
                    "source": [ "obj-7", 0 ]
                }
            },
            {
                "patchline": {
                    "destination": [ "obj-21", 1 ],
                    "midpoints": [ 1044.5, 887.5, 1201.0, 887.5, 1201.0, 848.5, 864.5, 848.5 ],
                    "source": [ "obj-78", 0 ]
                }
            }
        ],
        "parameters": {
            "obj-18::obj-4": [ "live.button", "live.button", 0 ],
            "obj-4": [ "rnbo~", "rnbo~", 0 ],
            "obj-6": [ "ENTREE", "ENTREE", 0 ],
            "obj-7": [ "SORTIE", "SORTIE", 0 ],
            "parameterbanks": {
                "0": {
                    "index": 0,
                    "name": "",
                    "parameters": [ "-", "-", "-", "-", "-", "-", "-", "-" ],
                    "buttons": [ "-", "-", "-", "-", "-", "-", "-", "-" ]
                }
            },
            "inherited_shortname": 1
        },
        "autosave": 0,
        "bgcolor": [ 0.36078431372549, 0.356862745098039, 0.356862745098039, 1.0 ],
        "editing_bgcolor": [ 0.423529411764706, 0.411764705882353, 0.411764705882353, 1.0 ],
        "oscsendudpaddr": "localhost"
    }
}